<?xml version="1.0" encoding="UTF-8"?>
<svg version="1.1" xmlns="http://www.w3.org/2000/svg" width="800" height="800">
<path d="M0 0 C4.37821909 -0.0740719 8.75610782 -0.12856375 13.13476562 -0.16479492 C14.62473909 -0.179896 16.11466801 -0.20037858 17.60449219 -0.22631836 C19.7442523 -0.26264584 21.88342566 -0.27971221 24.0234375 -0.29296875 C25.31169434 -0.3086792 26.59995117 -0.32438965 27.92724609 -0.34057617 C28.94125488 -0.22818604 29.95526367 -0.1157959 31 0 C33.38511188 3.57766782 33.24812641 5.1326372 33.24291992 9.37988281 C33.24753487 11.35773773 33.24753487 11.35773773 33.25224304 13.37554932 C33.24534203 14.8180763 33.23807481 16.26060156 33.23046875 17.703125 C33.22927606 19.18422404 33.22882398 20.66532384 33.2290802 22.14642334 C33.22751547 25.25342536 33.21923034 28.36031214 33.20581055 31.46728516 C33.18888007 35.43601229 33.18499463 39.40461211 33.18575573 43.37337112 C33.18548269 46.43441976 33.17997909 49.49544095 33.17275429 52.55648041 C33.16958654 54.01880435 33.16760467 55.48113138 33.16686058 56.94345856 C33.1646734 58.99653822 33.155877 61.04948775 33.14526367 63.10253906 C33.13954597 64.85102142 33.13954597 64.85102142 33.13371277 66.63482666 C32.99410365 70.14839455 32.52876237 73.52592752 32 77 C31.93475734 79.10195549 31.91412251 81.20575591 31.9375 83.30859375 C31.94910156 85.04786133 31.94910156 85.04786133 31.9609375 86.82226562 C31.98693696 89.22851608 32.01297849 91.63476608 32.0390625 94.04101562 C32.05066406 95.7822168 32.05066406 95.7822168 32.0625 97.55859375 C32.07410156 98.60329834 32.08570313 99.64800293 32.09765625 100.72436523 C31.98376971 104.54440462 31.5219865 108.21482723 31 112 C31.89900528 111.98747192 32.79801056 111.97494385 33.72425842 111.96203613 C42.21328865 111.84382346 50.70232518 111.7260769 59.19136906 111.60884857 C63.55523596 111.54857003 67.91910025 111.48811383 72.28295898 111.42724609 C76.49749114 111.36846781 80.71202961 111.31016344 84.9265728 111.25218201 C86.53124664 111.23002355 88.13591816 111.20769686 89.74058723 111.18519592 C91.99510232 111.15361201 94.24962502 111.12263651 96.50415039 111.09179688 C97.78544327 111.07403198 99.06673615 111.05626709 100.38685608 111.03796387 C103.92487997 111.0007893 107.46181086 110.99330377 111 111 C111.00331015 110.44008677 111.00662029 109.88017353 111.01003075 109.30329323 C111.09118298 95.69147856 111.18337603 82.07977746 111.28752708 68.46811867 C111.3375576 61.88566842 111.38388691 55.30323476 111.421875 48.72070312 C111.45864259 42.37291559 111.50497899 36.02526456 111.55806351 29.67759323 C111.57665292 27.25102499 111.59174389 24.82442743 111.60334396 22.3978157 C111.62012877 19.00937041 111.64914473 15.62124092 111.68115234 12.23291016 C111.68331253 11.22087021 111.68547272 10.20883026 111.68769836 9.16612244 C111.69886185 8.24623032 111.71002533 7.3263382 111.7215271 6.37857056 C111.72982324 5.17563071 111.72982324 5.17563071 111.73828697 3.94838905 C112 2 112 2 114 0 C116.88916016 -0.22705078 116.88916016 -0.22705078 120.5390625 -0.1953125 C122.49199219 -0.18564453 122.49199219 -0.18564453 124.484375 -0.17578125 C125.86458595 -0.15906929 127.24479429 -0.14213939 128.625 -0.125 C130.01301452 -0.11497006 131.40103589 -0.10584423 132.7890625 -0.09765625 C136.19288026 -0.07401863 139.59635506 -0.04106867 143 0 C143 0.66 143 1.32 143 2 C143.66 2 144.32 2 145 2 C145 38.3 145 74.6 145 112 C150.94 111.505 150.94 111.505 157 111 C159.25990399 110.9225739 161.52127143 110.87384719 163.78250122 110.87301636 C164.98250259 110.87019653 166.18250397 110.86737671 167.41886902 110.86447144 C168.69103775 110.86649567 169.96320648 110.8685199 171.27392578 110.87060547 C172.66159613 110.86924681 174.04926611 110.86746429 175.43693542 110.86529541 C179.1655882 110.86078051 182.89421296 110.86248475 186.62286615 110.8656745 C190.53632839 110.868224 194.44978839 110.86585386 198.36325073 110.86428833 C204.92120796 110.86247631 211.47915387 110.86484972 218.03710938 110.86962891 C225.62176224 110.87509241 233.2063883 110.87328992 240.79104054 110.8678025 C247.31610282 110.86327079 253.84115701 110.86262042 260.36622036 110.86524117 C264.25838402 110.86680071 268.15053505 110.86700607 272.04269791 110.86370468 C275.69204536 110.86082437 279.341358 110.86280457 282.99070168 110.86859894 C284.97260617 110.87055859 286.9545136 110.86757558 288.93641663 110.86447144 C290.10821976 110.86729126 291.28002289 110.87011108 292.48733521 110.87301636 C293.50968828 110.87339338 294.53204136 110.87377041 295.58537483 110.87415886 C298 111 298 111 300 112 C300 122.89 300 133.78 300 145 C262.38 145 224.76 145 186 145 C186 181.63 186 218.26 186 256 C194.06179688 255.97679687 202.12359375 255.95359375 210.4296875 255.9296875 C215.52474279 255.9194733 220.61978552 255.90984571 225.71484375 255.90234375 C233.80910881 255.89036948 241.90332913 255.87647237 249.99755859 255.84912109 C256.52032422 255.82709044 263.04305966 255.81544443 269.56586075 255.81024551 C272.05944708 255.80653863 274.55303066 255.79930047 277.04659653 255.78853989 C280.5283564 255.77410703 284.00991444 255.77201861 287.49169922 255.77294922 C288.53179138 255.76575867 289.57188354 255.75856812 290.64349365 255.75115967 C292.06119553 255.75528366 292.06119553 255.75528366 293.50753784 255.75949097 C294.74366223 255.75672559 294.74366223 255.75672559 296.00475883 255.75390434 C298 256 298 256 300 258 C300.22705078 261.07275391 300.22705078 261.07275391 300.1953125 264.9765625 C300.19106766 266.00443375 300.19106766 266.00443375 300.18673706 267.05307007 C300.17553281 269.24389027 300.15042859 271.43430316 300.125 273.625 C300.11497048 275.1093691 300.10584458 276.5937446 300.09765625 278.078125 C300.07559294 281.71888261 300.04106176 285.35940156 300 289 C299.34 289 298.68 289 298 289 C298 289.66 298 290.32 298 291 C279.24200502 291.02332788 260.48401297 291.04097863 241.72600651 291.05181217 C233.0169584 291.05697537 224.30791929 291.06401851 215.59887695 291.07543945 C208.01086259 291.08538558 200.42285474 291.09185326 192.83483404 291.09408849 C188.81452881 291.09539572 184.79424222 291.09848234 180.77394295 291.10573006 C176.99426016 291.11248915 173.2146038 291.11461719 169.43491554 291.11310768 C168.04369717 291.11338406 166.65247797 291.11538985 165.2612648 291.11920547 C163.36986674 291.12414091 161.47845468 291.12239798 159.58705139 291.12025452 C158.52606767 291.12117631 157.46508394 291.1220981 156.3719492 291.12304783 C154 291 154 291 153 290 C152.90347404 288.12705216 152.87812734 286.25041756 152.87974548 284.37498474 C152.87768349 282.54284424 152.87768349 282.54284424 152.87557983 280.6736908 C152.87911944 279.30776953 152.88275426 277.94184852 152.88647461 276.57592773 C152.88675648 275.14722699 152.88659876 273.7185261 152.8860321 272.28982544 C152.88574411 268.39950028 152.89164113 264.50920569 152.89860606 260.61888766 C152.9048393 256.55761795 152.90544337 252.49634761 152.90663147 248.43507385 C152.90974488 240.73921067 152.91795839 233.04336162 152.92798096 225.34750468 C152.94122697 214.95180949 152.94664193 204.55611046 152.95248318 194.16040897 C152.96189827 177.77359539 152.98181712 161.38681163 153 145 C93.105 145.495 93.105 145.495 32 146 C31.9690625 162.1803125 31.9690625 162.1803125 31.9375 178.6875 C31.928396 182.06701904 31.91929199 185.44653809 31.90991211 188.9284668 C31.90698815 191.64371705 31.90444073 194.35896774 31.90234375 197.07421875 C31.89842369 198.10419731 31.89842369 198.10419731 31.89442444 199.15498352 C31.8658161 207.08260204 32.08813231 214.91450204 32.7696991 222.8160553 C33.17675925 228.44372325 33.16264806 234.07086476 33.16796875 239.7109375 C33.17296135 241.58949936 33.17296135 241.58949936 33.17805481 243.50601196 C33.18307922 246.12949256 33.18546454 248.75297944 33.18530273 251.37646484 C33.18677358 254.05307543 33.19227306 256.72923079 33.20581055 259.40576172 C33.22412424 263.2992063 33.22903763 267.19245417 33.23046875 271.0859375 C33.23765427 272.27770599 33.24483978 273.46947449 33.25224304 274.69735718 C33.24916641 275.81607208 33.24608978 276.93478699 33.24291992 278.08740234 C33.24434494 279.06301117 33.24576996 280.03862 33.24723816 281.04379272 C33 284 33 284 31 291 C20.77 291 10.54 291 0 291 C0 290.34 0 289.68 0 289 C-0.66 289 -1.32 289 -2 289 C-2 194.29 -2 99.58 -2 2 C-1.34 2 -0.68 2 0 2 C0 1.34 0 0.68 0 0 Z " fill="#FAFAFA" transform="translate(251,265)"/>
<path d="M0 0 C0.84127441 -0.00708481 1.68254883 -0.01416962 2.54931641 -0.02146912 C3.47405762 -0.0189917 4.39879883 -0.01651428 5.3515625 -0.01396179 C6.32399902 -0.01907272 7.29643555 -0.02418365 8.29833984 -0.02944946 C11.52447603 -0.04339136 14.75039971 -0.04238539 17.9765625 -0.04008484 C20.21093832 -0.04396894 22.44531339 -0.04830301 24.6796875 -0.05307007 C29.36721183 -0.06054197 34.05466085 -0.06023376 38.7421875 -0.05497742 C44.76183811 -0.04917833 50.78118148 -0.06611986 56.80078125 -0.08932209 C61.41603409 -0.10402217 66.03121228 -0.10493628 70.64648438 -0.10181236 C72.86654266 -0.10232735 75.08660493 -0.10759806 77.30664062 -0.11762428 C80.40515374 -0.12990071 83.50305979 -0.12325026 86.6015625 -0.11161804 C87.52630371 -0.11926178 88.45104492 -0.12690552 89.40380859 -0.13478088 C90.66572021 -0.12425941 90.66572021 -0.12425941 91.953125 -0.11352539 C92.68611816 -0.11369313 93.41911133 -0.11386087 94.17431641 -0.1140337 C95.9765625 0.26069641 95.9765625 0.26069641 97.9765625 3.26069641 C98.22265816 5.67571545 98.22265816 5.67571545 98.21707153 8.59472656 C98.21982086 9.70110474 98.22257019 10.80748291 98.22540283 11.9473877 C98.214617 13.76862907 98.214617 13.76862907 98.20361328 15.62666321 C98.20390533 16.90481903 98.20419739 18.18297485 98.20449829 19.49986267 C98.20507275 23.00582764 98.19330346 26.51165611 98.17935038 30.01758933 C98.16685849 33.68112228 98.16567374 37.34465827 98.16329956 41.00820923 C98.15708025 47.94612754 98.14066335 54.88398291 98.12060058 61.82187349 C98.0982556 69.72021198 98.08725168 77.61855345 98.07720971 85.51691568 C98.0562975 101.76487945 98.02111278 118.0127799 97.9765625 134.26069641 C97.3165625 134.26069641 96.6565625 134.26069641 95.9765625 134.26069641 C95.9765625 134.92069641 95.9765625 135.58069641 95.9765625 136.26069641 C91.72241627 136.28535263 87.46830752 136.3035354 83.21411133 136.31562805 C81.76586177 136.32066742 80.31761733 136.32749894 78.86938477 136.33613586 C76.79181662 136.34821888 74.71431553 136.35392852 72.63671875 136.35835266 C71.38511963 136.36358948 70.13352051 136.36882629 68.84399414 136.3742218 C65.9765625 136.26069641 65.9765625 136.26069641 64.9765625 135.26069641 C64.88091127 133.79320681 64.85467941 132.32112758 64.85630798 130.8505249 C64.85424599 129.42226379 64.85424599 129.42226379 64.85214233 127.96514893 C64.85753525 126.38559166 64.85753525 126.38559166 64.86303711 124.77412415 C64.86289108 123.67182465 64.86274506 122.56952515 64.8625946 121.43382263 C64.86329429 117.77062549 64.87108926 114.10747848 64.87890625 110.44429016 C64.88077023 107.91223173 64.88219423 105.38017294 64.88319397 102.84811401 C64.88662904 96.85221392 64.89451981 90.85633552 64.90454346 84.86044413 C64.91570573 78.03588583 64.92121533 71.21132669 64.92623889 64.38676155 C64.93670246 50.34472977 64.9543012 36.30271408 64.9765625 22.26069641 C63.70869148 22.28281944 63.70869148 22.28281944 62.41520691 22.3053894 C54.45478594 22.44336375 46.49430057 22.57633256 38.5337019 22.70366001 C34.4409537 22.76929944 30.34825676 22.83688327 26.25561523 22.90888977 C22.30699862 22.97829108 18.35832911 23.04261224 14.40957069 23.10339165 C12.90204164 23.1274924 11.39454084 23.15343262 9.88707542 23.18123055 C7.77787062 23.21981235 5.66866066 23.25188988 3.55932617 23.28242493 C2.35797531 23.30241043 1.15662445 23.32239594 -0.08113098 23.34298706 C-3.0234375 23.26069641 -3.0234375 23.26069641 -6.0234375 22.26069641 C-6.08134103 18.96910325 -6.11700011 15.67764038 -6.1484375 12.38569641 C-6.16519531 11.44854797 -6.18195313 10.51139954 -6.19921875 9.54585266 C-6.20888672 8.202005 -6.20888672 8.202005 -6.21875 6.83100891 C-6.22922363 6.00359192 -6.23969727 5.17617493 -6.25048828 4.32368469 C-5.80518324 0.2776335 -3.52948718 0.00988492 0 0 Z " fill="#FAFAFA" transform="translate(298.0234375,419.7393035888672)"/>
<path d="M0 0 C4.23580253 -0.07407906 8.47126341 -0.12856696 12.70751953 -0.16479492 C14.14899258 -0.17989483 15.59041959 -0.20037658 17.03173828 -0.22631836 C19.10200343 -0.2626513 21.17166207 -0.27971329 23.2421875 -0.29296875 C24.4885498 -0.3086792 25.73491211 -0.32438965 27.01904297 -0.34057617 C28.00275879 -0.22818604 28.98647461 -0.1157959 30 0 C32.04664566 3.06996849 32.24926417 3.66528563 32.24050903 7.1191864 C32.24325836 7.95631165 32.24600769 8.79343689 32.24884033 9.65592957 C32.24164978 10.57086685 32.23445923 11.48580414 32.22705078 12.4284668 C32.22734283 13.39450836 32.22763489 14.36054993 32.22793579 15.35586548 C32.22654079 18.5537408 32.21097143 21.75138406 32.1953125 24.94921875 C32.19158298 27.16453423 32.18873572 29.37985135 32.18673706 31.59516907 C32.17909581 37.4297032 32.15944304 43.26413797 32.1373291 49.09863281 C32.11688129 55.05076758 32.10773762 61.00291837 32.09765625 66.95507812 C32.07619767 78.63676244 32.04205575 90.31837296 32 102 C29.02640551 103.48679725 26.33700821 103.11112605 23.0234375 103.09765625 C22.33819 103.0962413 21.6529425 103.09482635 20.94692993 103.09336853 C18.75624239 103.08776675 16.5656567 103.07521406 14.375 103.0625 C12.89062648 103.05748522 11.40625135 103.05292228 9.921875 103.04882812 C6.28121685 103.03779677 2.64061836 103.02053099 -1 103 C-1.17692509 90.16122315 -1.34288378 77.32235615 -1.49477577 64.48325729 C-1.5656485 58.5217927 -1.64032281 52.56042588 -1.72363281 46.59912109 C-1.80386637 40.84800743 -1.87418225 35.09685077 -1.93757248 29.34552765 C-1.96353053 27.14941171 -1.99308471 24.95333529 -2.02626419 22.75731659 C-2.07206558 19.68556822 -2.10517157 16.61392904 -2.13525391 13.54199219 C-2.1517952 12.63065018 -2.16833649 11.71930817 -2.18537903 10.78034973 C-2.19104385 9.94184982 -2.19670868 9.10334991 -2.20254517 8.23944092 C-2.2117631 7.51306805 -2.22098103 6.78669518 -2.23047829 6.038311 C-1.96303179 3.67305936 -1.16997027 2.05596593 0 0 Z " fill="#FAFAFA" transform="translate(428,265)"/>
</svg>
